<svg width="70" height="71" viewBox="0 0 70 71" fill="none" xmlns="http://www.w3.org/2000/svg">
  <path d="M35 6.2334C18.9 6.2334 5.83337 19.3001 5.83337 35.4001C5.83337 51.5001 18.9 64.5667 35 64.5667C51.1 64.5667 64.1667 51.5001 64.1667 35.4001C64.1667 19.3001 51.1 6.2334 35 6.2334ZM35 58.7334C22.1375 58.7334 11.6667 48.2626 11.6667 35.4001C11.6667 22.5376 22.1375 12.0667 35 12.0667C47.8625 12.0667 58.3334 22.5376 58.3334 35.4001C58.3334 48.2626 47.8625 58.7334 35 58.7334Z" fill="#CCCEEF"/>
  <path d="M35 55.8167C37.4209 55.8167 39.375 53.8626 39.375 51.4417H30.625C30.625 53.8626 32.5792 55.8167 35 55.8167Z" fill="#CCCEEF"/>
  <path d="M43.75 44.1501H26.25V48.5251H43.75V44.1501Z" fill="#CCCEEF"/>
  <path d="M35 14.9834C26.95 14.9834 20.4167 21.5167 20.4167 29.5667C20.4167 34.3501 22.75 38.5792 26.3375 41.2334H43.6917C47.25 38.5792 49.5834 34.3501 49.5834 29.5667C49.5834 21.5167 43.05 14.9834 35 14.9834ZM42.0875 36.8584H27.9125C25.9292 34.9334 24.7917 32.3376 24.7917 29.5667C24.7917 23.9376 29.3709 19.3584 35 19.3584C40.6292 19.3584 45.2084 23.9376 45.2084 29.5667C45.2084 32.3376 44.0709 34.9334 42.0875 36.8584Z" fill="#CCCEEF"/>
</svg>